<svg width="20" height="20" viewBox="0 0 20 20" fill="none" xmlns="http://www.w3.org/2000/svg">
<path d="M10 18C10.87 18 11.71 17.86 12.494 17.604C12.1068 17.1005 11.7799 16.5535 11.52 15.974C11.024 16.675 10.486 17 10 17C9.34301 17 8.59301 16.41 7.97801 15.092C7.74393 14.5794 7.55715 14.0466 7.42001 13.5H11.004C11.016 13.158 11.063 12.823 11.141 12.5H7.20601C7.06705 11.674 6.99814 10.8376 7.00001 10C7.00001 9.117 7.07301 8.275 7.20601 7.5H12.794C12.914 8.204 12.986 8.963 12.998 9.758C13.3 9.552 13.629 9.383 13.984 9.258C13.9582 8.66914 13.8991 8.0822 13.807 7.5H16.54C16.75 8.049 16.893 8.631 16.959 9.236C17.333 9.363 17.68 9.538 17.996 9.753C17.9475 8.18201 17.4373 6.66012 16.5291 5.37734C15.6209 4.09455 14.3549 3.10772 12.8893 2.54003C11.4236 1.97235 9.82323 1.84898 8.2879 2.18532C6.75257 2.52165 5.35032 3.3028 4.25624 4.43123C3.16215 5.55965 2.42471 6.98536 2.13597 8.53036C1.84723 10.0753 2.02 11.6712 2.63269 13.1186C3.24539 14.566 4.27087 15.8008 5.5811 16.669C6.89134 17.5371 8.42827 18 10 18ZM10 3C10.657 3 11.407 3.59 12.022 4.908C12.239 5.374 12.428 5.91 12.581 6.5H7.41901C7.57201 5.91 7.76101 5.374 7.97901 4.908C8.59201 3.59 9.34201 3 10 3ZM7.07201 4.485C6.77672 5.13182 6.54787 5.80695 6.38901 6.5H3.93601C4.78025 5.04087 6.12123 3.93415 7.71401 3.382C7.47301 3.712 7.25801 4.086 7.07201 4.485ZM6.19201 7.5C6.06259 8.32702 5.99839 9.16292 6.00001 10C6.00001 10.87 6.06701 11.712 6.19301 12.5H3.46001C3.15503 11.7018 2.99912 10.8545 3.00001 10C3.00001 9.12 3.16301 8.276 3.46001 7.5H6.19301H6.19201ZM6.38901 13.5C6.56501 14.243 6.79601 14.922 7.07201 15.515C7.25801 15.914 7.47301 16.288 7.71401 16.618C6.12123 16.0659 4.78025 14.9591 3.93601 13.5H6.39001H6.38901ZM12.286 3.382C13.8788 3.93407 15.2198 5.04081 16.064 6.5H13.61C13.4511 5.80695 13.2223 5.13182 12.927 4.485C12.7489 4.09756 12.534 3.72819 12.285 3.382H12.286ZM19 13.682C19 11.649 17.535 10.001 15.501 10.001C13.468 10.001 12 11.649 12 13.682C12 15.206 12.982 17.212 15.256 18.918C15.401 19.028 15.601 19.028 15.746 18.918C18.022 17.212 19 15.206 19 13.682ZM17 13.5C17 13.8978 16.842 14.2794 16.5607 14.5607C16.2794 14.842 15.8978 15 15.5 15C15.1022 15 14.7207 14.842 14.4393 14.5607C14.158 14.2794 14 13.8978 14 13.5C14 13.1022 14.158 12.7206 14.4393 12.4393C14.7207 12.158 15.1022 12 15.5 12C15.8978 12 16.2794 12.158 16.5607 12.4393C16.842 12.7206 17 13.1022 17 13.5V13.5Z" fill="black"/>
</svg>
