<svg width="448" height="512" viewBox="0 0 448 512" fill="none" xmlns="http://www.w3.org/2000/svg">
<path d="M48 32C21.5 32 0 53.5 0 80V432C0 458.5 21.5 480 48 480H400C426.5 480 448 458.5 448 432V80C448 53.5 426.5 32 400 32H48ZM146.88 165.234C166.516 165.234 183.962 172.023 196.809 182.205C208.689 191.657 214.253 201.112 219.107 209.598L185.184 226.547C182.757 220.982 179.837 215.16 172.338 208.865C164.09 202.313 155.86 200.381 148.814 200.381C121.188 200.381 106.644 226.074 106.644 254.668C106.644 292.241 125.805 310.888 148.814 310.888C171.114 310.888 180.092 295.378 185.894 285.453L219.6 302.66C213.285 312.586 207.226 322.295 193.65 331.729C186.388 336.819 169.673 346.766 145.914 346.766C100.586 346.766 64 313.81 64 255.87C64 205.234 98.415 165.233 146.88 165.233V165.234ZM222.363 170.562H267.928L303.31 292.24L338.435 170.562H384L324.621 341.674H281.01L222.363 170.563V170.562Z" fill="black"/>
</svg>
