<svg width="20" height="20" viewBox="0 0 20 20" fill="none" xmlns="http://www.w3.org/2000/svg">
<path d="M9.99959 10.9524C7.83719 10.9524 5.99999 11.5812 4.79999 12.5668V14.4H15.2V12.5668C14 11.5812 12.1624 10.9524 9.99959 10.9524V10.9524ZM19.548 10.0116L9.97439 5.59998L0.404785 10.0116L1.99999 10.7416V11.8644C1.59999 11.9472 1.59879 12.1568 1.59879 12.406C1.59879 12.5532 1.64759 12.7256 1.74039 12.8288L1.19319 14H3.14519L2.60279 12.828C2.69399 12.7248 2.76879 12.5728 2.76879 12.4256C2.76879 12.1768 2.39999 11.9468 2.39999 11.864V10.9292L4.39999 11.8276V11.748C5.59999 10.7044 7.70839 10.042 9.99919 10.042C12.2908 10.042 14.4 10.7044 15.6 11.748V11.8276L19.548 10.0116V10.0116Z" fill="white"/>
</svg>
